<svg xmlns="http://www.w3.org/2000/svg" width="256" height="256" viewBox="0 0 256 256" role="img" aria-label="GitHub">
  <defs>
    <linearGradient id="g" x1="0" x2="1">
      <stop offset="0%" stop-color="#667eea" />
      <stop offset="100%" stop-color="#764ba2" />
    </linearGradient>
  </defs>
  <rect width="100%" height="100%" rx="36" fill="url(#g)" />
  <g transform="translate(40,36) scale(0.75)" fill="#ffffff">
    <path d="M127.6 12C72.9 12 28 56.9 28 111.6c0 44.6 28.9 82.4 69 95.8 5 .9 6.8-2.1 6.8-4.7 0-2.3-.1-8.4-.1-16.5-28 6.1-33.9-12-33.9-12-4.6-11.8-11.3-14.9-11.3-14.9-9.3-6.4.7-6.3.7-6.3 10.3.7 15.8 10.6 15.8 10.6 9.1 15.6 23.9 11.1 29.7 8.5.9-6.6 3.6-11.1 6.6-13.7-22.4-2.5-45.9-11.2-45.9-49.9 0-11 3.9-20 10.3-27.1-1-2.5-4.5-12.6 1-26.4 0 0 8.5-2.7 27.9 10.4 8.1-2.3 16.8-3.4 25.4-3.4s17.3 1.1 25.4 3.4c19.4-13.1 27.9-10.4 27.9-10.4 5.5 13.8 2 23.9 1 26.4 6.4 7.1 10.3 16 10.3 27.1 0 38.8-23.6 47.4-46.1 49.8 3.7 3.2 7 9.4 7 19 0 13.7-.1 24.7-.1 28 0 2.6 1.8 5.7 6.9 4.7 40.1-13.4 69-51.2 69-95.8C227.2 56.9 182.3 12 127.6 12z"/>
  </g>
</svg>